# xmcd
#
# Track frame offsets:
#	150
#	14407
#	31672
#	48135
#	66787
#	81340
#	83437
#	99810
#	116040
#	131887
#	145852
#	163277
#	165917
#	180680
#	201915
#	219547
#	220810
#	222050
#	223237
#	224480
#	225692
#	226907
#	228120
#	229387
#	230657
#	231932
#
# Disc length: 3230 seconds
#
# Revision: 6
# Processed by: cddbd v1.5.2PL0 Copyright (c) Steve Scherf et al.
# Submitted via: EZCDAudioConverter 1.0.8.1
#
DISCID=700c9c1a
DTITLE=Apartment 26 - Hallucinating
DYEAR=2000
DGENRE=Industrial Metal
TTITLE0=Backwards
TTITLE1=Doing It Anyway
TTITLE2=Sliced Beats
TTITLE3=Keep You
TTITLE4=Apartment 26
TTITLE5=Hallucinating Intro
TTITLE6=Hallucinating
TTITLE7=The Fear
TTITLE8=Basic Breakdown
TTITLE9=Anymore
TTITLE10=Bruised
TTITLE11=Question Of Reality Intro
TTITLE12=Question Of Reality
TTITLE13=Death
TTITLE14=Void (feat. Burton C. Bell)
TTITLE15=(Filler)
TTITLE16=(Filler)
TTITLE17=(Filler)
TTITLE18=(Filler)
TTITLE19=(Filler)
TTITLE20=(Filler)
TTITLE21=(Filler)
TTITLE22=(Filler)
TTITLE23=(Filler)
TTITLE24=(Filler)
TTITLE25=Epilogue
EXTD=
EXTT0=
EXTT1=
EXTT2=
EXTT3=
EXTT4=
EXTT5=
EXTT6=
EXTT7=
EXTT8=
EXTT9=
EXTT10=
EXTT11=
EXTT12=
EXTT13=
EXTT14=
EXTT15=
EXTT16=
EXTT17=
EXTT18=
EXTT19=
EXTT20=
EXTT21=
EXTT22=
EXTT23=
EXTT24=
EXTT25=
PLAYORDER=
